<svg xmlns="http://www.w3.org/2000/svg" viewBox="0 0 2000.63 1199.02"><defs><style>.cls-1{fill:#fff;}.cls-2{fill:#0b3148;}.cls-3{fill:#d62828;}</style></defs><title>logo01</title><g id="Layer_2" data-name="Layer 2"><g id="Layer_1-2" data-name="Layer 1"><rect class="cls-1" x="0.25" y="0.25" width="2000.13" height="1198.52" rx="71.66" ry="71.66"/><path class="cls-1" d="M1928.72,1199H71.91A72,72,0,0,1,0,1127.11V71.9A72,72,0,0,1,71.91,0H1928.72a72,72,0,0,1,71.91,71.9V1127.11A72,72,0,0,1,1928.72,1199ZM71.91.5A71.48,71.48,0,0,0,.5,71.9V1127.11a71.49,71.49,0,0,0,71.41,71.41H1928.72a71.49,71.49,0,0,0,71.41-71.41V71.9A71.48,71.48,0,0,0,1928.72.5Z"/><g id="Layer_2-2" data-name="Layer 2-2"><g id="Layer_1-2-2" data-name="Layer 1-2-2"><path class="cls-2" d="M1719.73,442.73c0,13.53.73,27.06,1.22,40.7h-.85l-15.85-27.78-58.49-98.22h-10.11V496.84h9.14v-86.4c0-13.65-.74-26.2-1.22-39.61h.85l15.84,27.67,58.62,98.34H1729V357.31h-9.14Z"/><path class="cls-2" d="M1819.78,428.35v8.29h33.15V480a46.16,46.16,0,0,1-31.2,10.48c-31.68,0-50.45-24.37-50.45-63.85s19.86-62.88,51.67-62.88A41.55,41.55,0,0,1,1855.12,378l5.61-6.58a50,50,0,0,0-37.9-16.57c-36.56,0-61.79,27.66-61.79,72S1785.41,500,1821.12,500a55,55,0,0,0,41.19-15.36v-56.3Z"/><polygon class="cls-2" points="248.24 386.19 206.93 528.4 205.83 528.4 164.52 386.19 110.29 386.19 180.61 592.75 180.61 744.1 232.28 744.1 232.28 592.75 302.59 386.19 248.24 386.19"/><path class="cls-2" d="M394.35,667.45a29.85,29.85,0,0,1-7.19,21.93,27.05,27.05,0,0,1-36.56,0,31.08,31.08,0,0,1-6.82-21.93V566.79a31.11,31.11,0,0,1,6.82-21.94,26.7,26.7,0,0,1,36.56,0A31.07,31.07,0,0,1,394,566.79ZM435.91,523a73.25,73.25,0,0,0-26.08-26.2,77.73,77.73,0,0,0-40.95-10.11,77.25,77.25,0,0,0-40.82,10.11,66,66,0,0,0-26.2,26.2,69.67,69.67,0,0,0-7.19,22.54,186.63,186.63,0,0,0-1.58,28.64v84a171.19,171.19,0,0,0,2.07,28.51,64.47,64.47,0,0,0,7.43,23.16,70.63,70.63,0,0,0,26,26.56,77.35,77.35,0,0,0,40.82,10.12,77.83,77.83,0,0,0,40.95-10.12,70.14,70.14,0,0,0,25.59-26.08,74.41,74.41,0,0,0,7.43-23.15,203.09,203.09,0,0,0,2.07-28.52v-84a193.08,193.08,0,0,0-1.82-29.13A73.2,73.2,0,0,0,435.91,523Z"/><path class="cls-2" d="M636.49,489.16H584.82V661a51,51,0,0,1-5.48,26.08,21.43,21.43,0,0,1-20,9,22.79,22.79,0,0,1-18.65-8.16,33.6,33.6,0,0,1-6.58-22.18V489H483V684a73.6,73.6,0,0,0,5.12,29.49,51.25,51.25,0,0,0,12.18,19.38,43.19,43.19,0,0,0,17.06,10.72,56.24,56.24,0,0,0,19.14,3.29,49.68,49.68,0,0,0,29-7.68,71,71,0,0,0,19.37-19.74h.74v24.38h51.3Z"/><path class="cls-3" d="M687.92,696h24.37a38.73,38.73,0,0,0,30.1-10.6,54,54,0,0,0,9-33.88V478.93a55.46,55.46,0,0,0-8.53-32.79A36.58,36.58,0,0,0,711.68,434H687.31V696Z"/><path class="cls-3" d="M1365.48,537.54a20.72,20.72,0,0,0-19.14,9.51,46.78,46.78,0,0,0-6,25v93.59h0a39.68,39.68,0,0,0,5.24,21.08,21.09,21.09,0,0,0,19.74,9,24.34,24.34,0,0,0,18.28-7.68,27.86,27.86,0,0,0,7.19-19.74V569.23a36.55,36.55,0,0,0-6.94-22.79A22.7,22.7,0,0,0,1365.48,537.54Z"/><path class="cls-3" d="M911.17,537.3a23.54,23.54,0,0,0-18.28,7.31,29.35,29.35,0,0,0-6.82,21.94v29.24H936.4V566.55a31.05,31.05,0,0,0-6.83-21.94A24.36,24.36,0,0,0,911.17,537.3Z"/><path class="cls-3" d="M1441.27,775.3a92,92,0,0,1-4.14,26.44,69.2,69.2,0,0,1-38.51,42,79.32,79.32,0,0,1-34.73,6.83,87.15,87.15,0,0,1-24.37-3.78,64.12,64.12,0,0,1-23.15-12.19,75.82,75.82,0,0,1-18.89-22.91,95.39,95.39,0,0,1-10.24-36.56h52a29.69,29.69,0,0,0,7.19,17.19,25.2,25.2,0,0,0,19.74,8.16,21,21,0,0,0,18-7.68,33.17,33.17,0,0,0,5.24-19.74V721.92h0A61.8,61.8,0,0,1,1369,741.17a52.73,52.73,0,0,1-27.42,6.83,45.94,45.94,0,0,1-44.84-24.37,64.14,64.14,0,0,1-6.58-21.09,219.6,219.6,0,0,1-2.08-33.51V571.54a360.94,360.94,0,0,1,1.47-39.73,48.74,48.74,0,0,1,51.91-45.33h0a60.11,60.11,0,0,1,20.72,3.29A46.45,46.45,0,0,1,1380.47,502l9.13,10V489.16h51.19V775.3ZM1250.56,437.37h-51.18V386.19h51.18Zm0,306.73h-51.18V489.16h51.18ZM1160.26,700a89.16,89.16,0,0,1-15.84,24.38A68.09,68.09,0,0,1,1120,740.81a78.47,78.47,0,0,1-30.7,6,74.82,74.82,0,0,1-52.28-19.62,69.88,69.88,0,0,1-17.19-24.37,82.88,82.88,0,0,1-6.94-33.39h48.74a53.31,53.31,0,0,0,7.19,19.5,21.82,21.82,0,0,0,20.48,9,29.16,29.16,0,0,0,20.22-7.19,24.35,24.35,0,0,0,8.78-20.47,29.76,29.76,0,0,0-5.48-18,42.27,42.27,0,0,0-20-12.91l-24.37-9a84.39,84.39,0,0,1-38-26.81,70,70,0,0,1-13.9-43.51A76,76,0,0,1,1039,505.74a67.25,67.25,0,0,1,24.37-15.36,83.86,83.86,0,0,1,58.37,0,64,64,0,0,1,22.79,15.6,79.28,79.28,0,0,1,20.59,53.86h-48.74a25.25,25.25,0,0,0-8.29-19.5,27.32,27.32,0,0,0-17.79-6.94,23.5,23.5,0,0,0-18.64,7.68,26.39,26.39,0,0,0-6.71,17.79,29,29,0,0,0,3.54,13.77,32.51,32.51,0,0,0,18,12.18l30.1,12.19a74,74,0,0,1,39.61,30.1,83.24,83.24,0,0,1,10.84,42A81.45,81.45,0,0,1,1160.26,700ZM987.7,636.62H886.8v34.12a24.4,24.4,0,0,0,6.82,18.64,25.94,25.94,0,0,0,18.28,6.7,20,20,0,0,0,19.26-8.65,49.82,49.82,0,0,0,5.73-17.06H988a73.1,73.1,0,0,1-45.22,70.19,82.21,82.21,0,0,1-31.56,6,77.58,77.58,0,0,1-40.94-10.12,70.17,70.17,0,0,1-25.84-26.56,62.47,62.47,0,0,1-7.55-23.16,185,185,0,0,1-2-28.51V574.71a177.46,177.46,0,0,1,2-29.13,73.26,73.26,0,0,1,7.55-23,68,68,0,0,1,25.84-25.71,77.67,77.67,0,0,1,40.94-10.48A83.63,83.63,0,0,1,943,492.21a73.2,73.2,0,0,1,24.37,16.45,83.46,83.46,0,0,1,20.35,56.79Zm585.92-90.3a23,23,0,0,0-18.77-8.17,21.45,21.45,0,0,0-20,9,50,50,0,0,0-5.49,26.2V744h-51.55V489.16h51.06v24.37h1.1a68.13,68.13,0,0,1,19.38-19.74,56.55,56.55,0,0,1,40.09-6.46c-60-253.32-314-410.07-567.27-350.1A471.37,471.37,0,0,0,708.76,385.94h3.41a88.22,88.22,0,0,1,67,24.38,95.92,95.92,0,0,1,23,67.87V646.12c0,33.51-8.17,58.25-24.38,74a96,96,0,0,1-70.07,24.37H683.41C765.07,991.73,1031.7,1126,1279,1044.32a471.48,471.48,0,0,0,301.48-304.85V568.86a36.5,36.5,0,0,0-6.34-23.15Z"/></g></g></g></g></svg>