<svg id="Layer_1" data-name="Layer 1" xmlns="http://www.w3.org/2000/svg" viewBox="0 0 143.77 77.45"><defs><style>.cls-1{fill:#0b3148;}.cls-2{fill:#d62828;}</style></defs><title>logo</title><g id="Layer_2" data-name="Layer 2"><g id="Layer_1-2" data-name="Layer 1-2"><path class="cls-1" d="M132.07,26.09c0,1.11.06,2.22.1,3.34h-.07l-1.3-2.28L126,19.09h-.83V30.55h.75V23.44c0-1.12-.06-2.15-.1-3.25h.07l1.3,2.27L132,30.53h.83V19.08h-.75Z" transform="translate(0 0.03)"/><path class="cls-1" d="M140.28,24.91v.68H143v3.56a3.74,3.74,0,0,1-2.56.86c-2.6,0-4.14-2.05-4.14-5.24s1.63-5.16,4.24-5.16a3.41,3.41,0,0,1,2.64,1.17l.46-.54a4.1,4.1,0,0,0-3.11-1.36c-3,0-5.07,2.27-5.07,5.91s2,5.95,4.93,5.95a4.52,4.52,0,0,0,3.38-1.29V24.91Z" transform="translate(0 0.03)"/><polygon class="cls-1" points="11.32 21.48 7.93 33.15 7.84 33.15 4.45 21.48 0 21.48 5.77 38.43 5.77 50.85 10.01 50.85 10.01 38.43 15.78 21.48 11.32 21.48"/><path class="cls-1" d="M23.31,44.48a2.45,2.45,0,0,1-.56,1.8,2.22,2.22,0,0,1-3,0,2.65,2.65,0,0,1-.56-1.8V36.27a2.55,2.55,0,0,1,.56-1.8,2.19,2.19,0,0,1,3,0,2.55,2.55,0,0,1,.56,1.8Zm3.39-11.8a5.91,5.91,0,0,0-2.12-2.18,6.36,6.36,0,0,0-3.36-.83,6.44,6.44,0,0,0-3.35.83,5.51,5.51,0,0,0-2.13,2.18,5.74,5.74,0,0,0-.61,1.89A16.75,16.75,0,0,0,15,36.92v6.89a15.26,15.26,0,0,0,.17,2.34,5.5,5.5,0,0,0,.61,1.9,5.79,5.79,0,0,0,2.13,2.18,6.34,6.34,0,0,0,3.35.83,6.38,6.38,0,0,0,3.36-.83,5.69,5.69,0,0,0,2.12-2.18,5.79,5.79,0,0,0,.61-1.9,15.26,15.26,0,0,0,.17-2.34V36.92a15.39,15.39,0,0,0-.17-2.35A5.59,5.59,0,0,0,26.7,32.68Z" transform="translate(0 0.03)"/><path class="cls-1" d="M43.18,29.9H38.94V44a4.08,4.08,0,0,1-.45,2.14,1.76,1.76,0,0,1-1.64.74,1.87,1.87,0,0,1-1.53-.67,2.76,2.76,0,0,1-.54-1.82V29.89h-4.2v16A6.24,6.24,0,0,0,31,48.31a4.33,4.33,0,0,0,1,1.59,3.54,3.54,0,0,0,1.4.88,4.67,4.67,0,0,0,1.57.27,4,4,0,0,0,2.38-.63,5.84,5.84,0,0,0,1.59-1.62H39v2h4.21Z" transform="translate(0 0.03)"/><path class="cls-2" d="M47.4,46.87h2A3.14,3.14,0,0,0,51.87,46a4.29,4.29,0,0,0,.74-2.78V29.06a4.48,4.48,0,0,0-.7-2.69,3,3,0,0,0-2.56-1h-2v21.5Z" transform="translate(0 0.03)"/><path class="cls-2" d="M103,33.87a1.7,1.7,0,0,0-1.57.78,3.87,3.87,0,0,0-.49,2.05v7.68h0a3.27,3.27,0,0,0,.43,1.73,1.73,1.73,0,0,0,1.62.74,1.93,1.93,0,0,0,1.5-.63,2.25,2.25,0,0,0,.59-1.62V36.47a2.92,2.92,0,0,0-.57-1.87A1.86,1.86,0,0,0,103,33.87Z" transform="translate(0 0.03)"/><path class="cls-2" d="M65.76,33.85a1.93,1.93,0,0,0-1.5.6,2.45,2.45,0,0,0-.56,1.8v2.4h4.13v-2.4a2.55,2.55,0,0,0-.56-1.8A2,2,0,0,0,65.76,33.85Z" transform="translate(0 0.03)"/><path class="cls-2" d="M109.22,53.38a7.24,7.24,0,0,1-.34,2.17A5.65,5.65,0,0,1,105.75,59a6.51,6.51,0,0,1-2.85.56,7.13,7.13,0,0,1-2-.31,5.26,5.26,0,0,1-1.9-1,6.39,6.39,0,0,1-1.55-1.88,8.11,8.11,0,0,1-.84-3h4.27a2.44,2.44,0,0,0,.59,1.41,2.07,2.07,0,0,0,1.62.67,1.72,1.72,0,0,0,1.48-.63A2.69,2.69,0,0,0,105,53.2V49h0a5,5,0,0,1-1.68,1.58,4.3,4.3,0,0,1-2.25.56,3.77,3.77,0,0,1-3.68-2,5.53,5.53,0,0,1-.54-1.73,19.43,19.43,0,0,1-.17-2.75v-8a29.51,29.51,0,0,1,.12-3.26,4,4,0,0,1,4.26-3.72h0a4.92,4.92,0,0,1,1.7.27,3.88,3.88,0,0,1,1.5,1l.75.82V29.9h4.2V53.38ZM93.57,25.65h-4.2v-4.2h4.2Zm0,25.17h-4.2V29.9h4.2ZM86.16,47.2a7.17,7.17,0,0,1-1.3,2,5.58,5.58,0,0,1-2,1.35,6.43,6.43,0,0,1-2.52.49,6.12,6.12,0,0,1-4.29-1.61,6,6,0,0,1-1.41-2,7,7,0,0,1-.57-2.74h4a4.36,4.36,0,0,0,.59,1.6,1.79,1.79,0,0,0,1.68.74A2.42,2.42,0,0,0,82,46.44a2,2,0,0,0,.72-1.68,2.38,2.38,0,0,0-.45-1.48,3.47,3.47,0,0,0-1.64-1.06l-2-.74a7,7,0,0,1-3.12-2.2,5.74,5.74,0,0,1-1.14-3.57,6.27,6.27,0,0,1,.49-2.45,6,6,0,0,1,1.35-2,5.52,5.52,0,0,1,2-1.26,6.34,6.34,0,0,1,2.4-.43A6.07,6.07,0,0,1,83,30a5.25,5.25,0,0,1,1.87,1.28,6.46,6.46,0,0,1,1.24,2,6.26,6.26,0,0,1,.45,2.42h-4a2.07,2.07,0,0,0-.68-1.6,2.23,2.23,0,0,0-1.46-.54,1.93,1.93,0,0,0-1.53.63,2.24,2.24,0,0,0-.55,1.46,2.35,2.35,0,0,0,.29,1.13,2.67,2.67,0,0,0,1.48,1l2.47,1a6,6,0,0,1,3.25,2.47,6.71,6.71,0,0,1,.88,3.42A6.57,6.57,0,0,1,86.16,47.2ZM72,42H63.7v2.8a2,2,0,0,0,.56,1.53,2.13,2.13,0,0,0,1.5.55,1.64,1.64,0,0,0,1.58-.71,3.69,3.69,0,0,0,.47-1.4H72a6,6,0,0,1-3.69,5.8,6.56,6.56,0,0,1-2.59.49,6.36,6.36,0,0,1-3.36-.83,5.76,5.76,0,0,1-2.12-2.18,5.51,5.51,0,0,1-.62-1.9,16.73,16.73,0,0,1-.16-2.34V36.92a16.77,16.77,0,0,1,.16-2.35,6,6,0,0,1,.62-1.89,5.62,5.62,0,0,1,2.12-2.18,6.47,6.47,0,0,1,3.36-.83,6.86,6.86,0,0,1,2.61.48,6,6,0,0,1,2,1.35A6.8,6.8,0,0,1,72,36.16V42Zm48.08-7.41a1.89,1.89,0,0,0-1.54-.67,1.76,1.76,0,0,0-1.64.74,4.21,4.21,0,0,0-.45,2.15v14h-4.23V29.9h4.19v2h.09a5.84,5.84,0,0,1,1.59-1.62,4.08,4.08,0,0,1,2.38-.63,4.61,4.61,0,0,1,.91.1,38.68,38.68,0,0,0-72.27-8.32h.28a7.24,7.24,0,0,1,5.5,2A7.82,7.82,0,0,1,56.78,29V42.78c0,2.75-.67,4.78-2,6.07a7.88,7.88,0,0,1-5.75,2H47a38.69,38.69,0,0,0,73.61-.41v-14a2.92,2.92,0,0,0-.52-1.9Z" transform="translate(0 0.03)"/></g></g></svg>