<svg xmlns="http://www.w3.org/2000/svg" viewBox="0 0 116.46 62.67"><defs><style>.cls-1{fill:#7e7e7e;}</style></defs><title>logo_grey</title><g id="Layer_2" data-name="Layer 2"><g id="footer"><path class="cls-1" d="M107,21.14c0,.89,0,1.79.08,2.7H107l-1-1.85-3.89-6.53h-.68v9.28H102V19c0-.9,0-1.73-.09-2.63H102l1,1.85,3.9,6.53h.67V15.46H107Z"/><path class="cls-1" d="M113.63,20.17v.56h2.2v2.88a3.06,3.06,0,0,1-2.07.7c-2.11,0-3.35-1.66-3.35-4.25s1.31-4.18,3.44-4.18a2.77,2.77,0,0,1,2.13.95l.37-.43a3.32,3.32,0,0,0-2.52-1.11c-2.45,0-4.1,1.84-4.1,4.79s1.59,4.82,4,4.82a3.64,3.64,0,0,0,2.74-1V20.17Z"/><polygon class="cls-1" points="9.17 17.37 6.42 26.82 6.36 26.82 3.61 17.37 0 17.37 4.67 31.1 4.67 41.16 8.11 41.16 8.11 31.1 12.78 17.37 9.17 17.37"/><path class="cls-1" d="M31.54,24.22V35.61a3.39,3.39,0,0,1-.36,1.74,1.42,1.42,0,0,1-1.33.6,1.53,1.53,0,0,1-1.24-.54,2.25,2.25,0,0,1-.44-1.48V24.21h-3.4v13a5.22,5.22,0,0,0,.3,1.92,3.71,3.71,0,0,0,.81,1.29,2.89,2.89,0,0,0,1.14.71,3.65,3.65,0,0,0,1.27.22,3.23,3.23,0,0,0,1.93-.51,4.7,4.7,0,0,0,1.28-1.31h.07v1.63H35V24.22H31.54Z"/><path class="cls-1" d="M42,37.25a3.52,3.52,0,0,0,.6-2.25V23.54A3.58,3.58,0,0,0,42,21.36,2.4,2.4,0,0,0,40,20.59H38.39V38H40A2.53,2.53,0,0,0,42,37.25Z"/><path class="cls-1" d="M94.37,25.86a4.77,4.77,0,0,1,1.29-1.32A3.32,3.32,0,0,1,97.58,24a4.65,4.65,0,0,1,.75.08,31.34,31.34,0,0,0-58.55-6.74H40A5.85,5.85,0,0,1,44.47,19,6.38,6.38,0,0,1,46,23.52V34.65q0,3.35-1.63,4.92a6.39,6.39,0,0,1-4.65,1.59H38.08a31.34,31.34,0,0,0,59.62-.33V29.45A2.26,2.26,0,0,0,97.27,28,1.5,1.5,0,0,0,96,27.44,1.43,1.43,0,0,0,94.7,28a3.3,3.3,0,0,0-.37,1.74V41.16H90.9V24.22h3.4v1.64ZM52.05,37.53a1.7,1.7,0,0,0,1.21.44,1.38,1.38,0,0,0,1.29-.57,3.57,3.57,0,0,0,.38-1.14h3.4A4.86,4.86,0,0,1,57,39.86,4.76,4.76,0,0,1,55.35,41a5.4,5.4,0,0,1-2.1.39,5.09,5.09,0,0,1-2.72-.67,4.57,4.57,0,0,1-1.72-1.77,4.31,4.31,0,0,1-.5-1.53,13.38,13.38,0,0,1-.13-1.9V29.9A11.93,11.93,0,0,1,48.31,28a4.64,4.64,0,0,1,.5-1.54,4.57,4.57,0,0,1,1.72-1.77A5.38,5.38,0,0,1,53.25,24a5.46,5.46,0,0,1,2.11.4A4.86,4.86,0,0,1,57,25.52a5.53,5.53,0,0,1,1.34,3.77V34H51.6v2.31A1.59,1.59,0,0,0,52.05,37.53Zm17.73.7a5.71,5.71,0,0,1-1,1.62,4.6,4.6,0,0,1-1.6,1.09,5.17,5.17,0,0,1-2,.4A4.94,4.94,0,0,1,61.61,40a4.7,4.7,0,0,1-1.14-1.59A5.5,5.5,0,0,1,60,36.23h3.22a3.39,3.39,0,0,0,.47,1.3,1.5,1.5,0,0,0,1.36.6,2,2,0,0,0,1.32-.49A1.63,1.63,0,0,0,67,36.29a2,2,0,0,0-.36-1.2,2.8,2.8,0,0,0-1.33-.86l-1.63-.6a5.61,5.61,0,0,1-2.53-1.78,4.57,4.57,0,0,1-.92-2.9,5,5,0,0,1,.39-2,4.88,4.88,0,0,1,1.1-1.59,4.46,4.46,0,0,1,1.57-1A5.61,5.61,0,0,1,65.19,24a5,5,0,0,1,1.92.37,4.3,4.3,0,0,1,1.52,1A5.07,5.07,0,0,1,70,29H66.8v0a1.65,1.65,0,0,0-.55-1.3,1.83,1.83,0,0,0-1.18-.44,1.56,1.56,0,0,0-1.24.51,1.79,1.79,0,0,0-.44,1.19,2,2,0,0,0,.23.92,2.13,2.13,0,0,0,1.2.81l2,.81a4.91,4.91,0,0,1,2.63,2,5.47,5.47,0,0,1,.71,2.77A5.07,5.07,0,0,1,69.78,38.23Zm6,2.93h-3.4V24.22h3.4Zm0-20.38h-3.4V17.37h3.4ZM88.47,43.24A6.15,6.15,0,0,1,88.19,45a4.43,4.43,0,0,1-.91,1.59,4.66,4.66,0,0,1-1.61,1.18,5.42,5.42,0,0,1-2.31.46A5.94,5.94,0,0,1,81.75,48a4.2,4.2,0,0,1-1.53-.85A4.72,4.72,0,0,1,79,45.6a6.56,6.56,0,0,1-.69-2.45h3.46v0a1.94,1.94,0,0,0,.48,1.14,1.65,1.65,0,0,0,1.32.54,1.36,1.36,0,0,0,1.19-.51A2.2,2.2,0,0,0,85.1,43V39.64H85a4.19,4.19,0,0,1-1.36,1.29,3.55,3.55,0,0,1-1.83.45,3.08,3.08,0,0,1-3-1.6,4.63,4.63,0,0,1-.44-1.41,15.09,15.09,0,0,1-.13-2.23V29.67a25.89,25.89,0,0,1,.1-2.64,3.3,3.3,0,0,1,1.13-2.27A3.36,3.36,0,0,1,81.87,24a3.75,3.75,0,0,1,1.37.22,3.14,3.14,0,0,1,1.22.85l.61.66V24.22h3.4Z"/><path class="cls-1" d="M51.6,31.31h3.34V29.36a2.09,2.09,0,0,0-.45-1.46,1.61,1.61,0,0,0-1.23-.48,1.57,1.57,0,0,0-1.21.48,2,2,0,0,0-.45,1.46v1.95Z"/><path class="cls-1" d="M83.39,27.44a1.39,1.39,0,0,0-1.27.62,3.14,3.14,0,0,0-.39,1.67V36h0a2.75,2.75,0,0,0,.35,1.4,1.39,1.39,0,0,0,1.31.6,1.64,1.64,0,0,0,1.22-.51,1.92,1.92,0,0,0,.48-1.32V29.54A2.37,2.37,0,0,0,84.63,28,1.49,1.49,0,0,0,83.39,27.44Z"/><path class="cls-1" d="M21.63,26.47A4.81,4.81,0,0,0,19.9,24.7,5.13,5.13,0,0,0,17.19,24a5.38,5.38,0,0,0-2.72.67,4.64,4.64,0,0,0-1.72,1.77,4.88,4.88,0,0,0-.5,1.54,13.24,13.24,0,0,0-.13,1.89v5.58a13.38,13.38,0,0,0,.13,1.9,4.31,4.31,0,0,0,.5,1.53,4.57,4.57,0,0,0,1.72,1.77,5.09,5.09,0,0,0,2.72.67,5,5,0,0,0,2.71-.67,4.44,4.44,0,0,0,2.22-3.3,12.06,12.06,0,0,0,.14-1.9V29.9A13.25,13.25,0,0,0,22.12,28,4.62,4.62,0,0,0,21.63,26.47Zm-3.2,11A1.62,1.62,0,0,1,17.2,38,1.59,1.59,0,0,1,16,37.48,2.07,2.07,0,0,1,15.54,36V29.38A2,2,0,0,1,16,27.92a1.55,1.55,0,0,1,1.21-.48,1.58,1.58,0,0,1,1.23.48,2.07,2.07,0,0,1,.45,1.46V36A2,2,0,0,1,18.43,37.48Z"/></g></g></svg>