<svg xmlns="http://www.w3.org/2000/svg" viewBox="0 0 19.95 19.95"><defs><style>.cls-1{fill:none;stroke:#e8e8e8;stroke-miterlimit:10;}.cls-2{fill:#656565;}</style></defs><title>bookmark_project</title><g id="Layer_2" data-name="Layer 2"><g id="Layer_3" data-name="Layer 3"><circle class="cls-1" cx="9.97" cy="9.97" r="9.47"/><path class="cls-2" d="M10,8.2c.69-.7,2.4.53,0,2.11C7.58,8.73,9.29,7.5,10,8.2Z"/><path class="cls-2" d="M7,7A1,1,0,0,1,8,6H12a1,1,0,0,1,1,1v6.66a.25.25,0,0,1-.24.25.23.23,0,0,1-.14,0L10,12.49,7.4,13.88a.26.26,0,0,1-.35-.07.33.33,0,0,1,0-.14Zm1-.49A.49.49,0,0,0,7.51,7v6.2L9.84,12a.23.23,0,0,1,.27,0l2.33,1.22V7A.49.49,0,0,0,12,6.52Z"/></g></g></svg>