<svg xmlns="http://www.w3.org/2000/svg" viewBox="0 0 35.85 35.8"><defs><style>.cls-1{fill:#fff;}</style></defs><title>brush</title><g id="Layer_2" data-name="Layer 2"><g id="Layer_3" data-name="Layer 3"><path class="cls-1" d="M35.45.27a1.15,1.15,0,0,1,.3,1.33A102.47,102.47,0,0,1,19.58,25.85a13.75,13.75,0,0,1-5.41,3.5,9.3,9.3,0,0,1-.37,2,5.48,5.48,0,0,1-3.89,4,18.8,18.8,0,0,1-7,.3,8.86,8.86,0,0,1-1.28-.31,3.32,3.32,0,0,1-1.07-.56,1.79,1.79,0,0,1-.46-.66,1.41,1.41,0,0,1,0-1,2,2,0,0,1,1-1,4.75,4.75,0,0,0,2-1.88c.22-.33.42-.68.66-1.08l.27-.45c.34-.58.74-1.23,1.24-1.93a4.48,4.48,0,0,1,4-2.05,5.79,5.79,0,0,1,.79.11c.14-.39.33-.86.54-1.38a20,20,0,0,1,2.71-4.72A105.31,105.31,0,0,1,34.09.18,1.16,1.16,0,0,1,35.45.27ZM10.1,27.15a2.82,2.82,0,0,0-.95-.23,2.23,2.23,0,0,0-2,1.09c-.44.63-.8,1.22-1.13,1.77l-.24.41c-.25.41-.49.82-.73,1.2a7.76,7.76,0,0,1-1.74,2,16.08,16.08,0,0,0,6.06-.27,3.21,3.21,0,0,0,2.26-2.42A7,7,0,0,0,11.91,29Zm3.29.06a10.28,10.28,0,0,0,1-.42,11.59,11.59,0,0,0,3.5-2.51A102.19,102.19,0,0,0,31.72,4.61,103.55,103.55,0,0,0,15.08,20.09a18.23,18.23,0,0,0-2.38,4.16c-.27.66-.48,1.24-.62,1.65h0l1.31,1.31ZM2.05,34.14h0Zm8.16-6.94h0Z"/></g></g></svg>