<svg xmlns="http://www.w3.org/2000/svg" viewBox="0 0 40.17 36.96"><defs><style>.cls-1{fill:#fff;}</style></defs><title>folder</title><g id="Layer_2" data-name="Layer 2"><g id="Layer_3" data-name="Layer 3"><path class="cls-1" d="M30.47.11A3.78,3.78,0,0,1,35,2.85a4,4,0,0,1,.11.91V6.83H36.4a3.76,3.76,0,0,1,3.77,3.76v22.6A3.77,3.77,0,0,1,36.4,37H3.77A3.77,3.77,0,0,1,0,33.19V10.59A3.76,3.76,0,0,1,3.6,6.83ZM14,6.83H32.64V3.76a1.26,1.26,0,0,0-1.26-1.25,1,1,0,0,0-.3,0ZM3.77,9.34a1.25,1.25,0,0,0-1.26,1.25v22.6a1.25,1.25,0,0,0,1.26,1.25H36.4a1.25,1.25,0,0,0,1.26-1.25V10.59A1.25,1.25,0,0,0,36.4,9.34Z"/></g></g></svg>