<svg xmlns="http://www.w3.org/2000/svg" viewBox="0 0 41.78 41.78"><defs><style>.cls-1{fill:#fff;}</style></defs><title>smiley</title><g id="Layer_2" data-name="Layer 2"><g id="Layer_3" data-name="Layer 3"><path class="cls-1" d="M13,25.46a1.31,1.31,0,1,0-2.27,1.29h0a11.75,11.75,0,0,0,20.36,0,1.31,1.31,0,0,0-2.26-1.32v0a9.14,9.14,0,0,1-15.83,0Zm5.31-12.1v-.31a2.61,2.61,0,0,0-2.61-2.61H8.56A2.61,2.61,0,0,0,6,13.05a2.74,2.74,0,0,0,.08.64l.81,3.24a5.22,5.22,0,0,0,5.07,4h1.14a5.22,5.22,0,0,0,5.21-4.8,7.59,7.59,0,0,1,2.63-.42,7.61,7.61,0,0,1,2.62.42,5.23,5.23,0,0,0,5.21,4.8h1.14a5.22,5.22,0,0,0,5.07-4l.81-3.24a2.61,2.61,0,0,0-1.9-3.17,2.65,2.65,0,0,0-.63-.08h-7.1a2.61,2.61,0,0,0-2.61,2.61v.31a11.14,11.14,0,0,0-5.22,0Z"/><path class="cls-1" d="M41.78,20.89A20.89,20.89,0,1,1,20.89,0,20.9,20.9,0,0,1,41.78,20.89Zm-2.62,0A18.28,18.28,0,1,0,20.89,39.16,18.27,18.27,0,0,0,39.16,20.89Z"/></g></g></svg>