<svg xmlns="http://www.w3.org/2000/svg" viewBox="0 0 7.89 7.89"><defs><style>.cls-1{fill:#3178f4;}</style></defs><title>verified</title><g id="Layer_2" data-name="Layer 2"><g id="Layer_3" data-name="Layer 3"><path class="cls-1" d="M5,.43a1.43,1.43,0,0,0-2,0l0,0L2.62.74H2.18A1.42,1.42,0,0,0,.74,2.15v.47l-.31.31a1.42,1.42,0,0,0,0,2l0,0,.31.3v.44A1.43,1.43,0,0,0,2.15,7.16h.47l.31.32a1.42,1.42,0,0,0,2,0l0,0,.3-.32h.44A1.44,1.44,0,0,0,7.16,5.75V5.27L7.47,5a1.43,1.43,0,0,0,0-2l0,0-.32-.31V2.18A1.43,1.43,0,0,0,5.75.74H5.27L5,.43Zm.14,2.95L3.63,4.86a.24.24,0,0,1-.35,0h0l-.74-.74a.24.24,0,0,1,0-.35.26.26,0,0,1,.35,0l.56.57L4.76,3a.26.26,0,0,1,.35,0,.24.24,0,0,1,0,.35Z"/></g></g></svg>